<svg t="1755673423704" class="icon" viewBox="0 0 1024 1024" version="1.1" xmlns="http://www.w3.org/2000/svg" p-id="42323" width="200" height="200"><path d="M508.803626 0C272.271942 0 80.489495 190.18426 80.489495 425.117757c0 108.67672 41.552863 206.16613 107.078533 281.280922 1.598187 3.196374 4.794561 6.392748 6.392748 9.589122 182.193324 190.18426 273.289987 286.075483 276.486361 287.673671l6.392748 6.392748c4.794561 4.794561 9.589122 7.990935 14.383683 9.589122 15.981871 7.990935 35.160115 4.794561 47.945612-7.990935 3.196374-3.196374 7.990935-6.392748 12.785496-11.18731 3.196374-3.196374 92.694849-97.48941 268.495426-284.477296 3.196374-3.196374 4.794561-4.794561 6.392748-7.990935 67.123856-75.114792 108.67672-174.202389 108.67672-281.280922C935.51957 190.18426 743.737123 0 508.803626 0z" fill="#C4E9D7" p-id="42324"></path><path d="M692.595137 161.416893s68.722043-17.580058 62.329296 47.945611l-142.238648 135.8459s-6.392748 15.981871-3.196375 23.972806 57.534734 252.513555 57.534734 252.513555l-39.954676 47.945612-103.882159-228.540749-91.096662 92.694849-4.794561 73.516604-23.972806 41.552864-46.347424-87.900288-87.900289-46.347425 23.972806-36.758302 70.320231 3.196374 92.694849-89.498475L240.3082 287.67367l47.945612-49.543799 249.317181 57.534734 20.776432-1.598187 134.247712-132.649525z" fill="#023037" p-id="42325"></path></svg>