<svg t="1755068219801" class="icon" viewBox="0 0 1157 1024" version="1.1" xmlns="http://www.w3.org/2000/svg" p-id="26278" width="200" height="200"><path d="M50.517066 420.050358c-9.10275-16.452513-8.623417-47.330647 29.723171-68.43953L196.576483 266.280538V55.803417h175.828239v109.287777L579.955633 45.650701l498.523913 305.950997c18.762438 10.828346 28.129962 30.805093 31.613111 40.989764 10.440315 30.535754-32.028532 45.970256-32.028532 45.970256h-81.12586v429.637005c0 113.948714-84.732266 110.132316-84.732266 110.132316h-675.630372s-73.611755-5.313742-73.611755-110.132316V438.570848H78.313777s-18.689397-2.058847-27.796711-18.52049z" fill="#90F0DE" p-id="26279"></path><path d="M262.569136 441.241414h45.650701v451.941938h-45.650701z" fill="#6E6E96" p-id="26280"></path><path d="M285.394486 642.104497h502.157709c50.215771 0 91.301402 41.085631 91.301402 91.301402v-4.56507 63.910981h-593.459111v-150.647313z" fill="#E6C4A3" p-id="26281"></path><path d="M285.394486 726.558294h593.459111v45.650701h-593.459111z" fill="#6E6E96" opacity=".15" p-id="26282"></path><path d="M856.028246 742.536039v-13.69521c0-37.757695-30.718357-22.82535-68.476051-22.825351h-502.157709v-45.6507h502.157709c62.929491 0 114.126752 5.54656 114.126752 68.476051v13.69521h-45.650701z" fill="#FFFFFF" opacity=".15" p-id="26283"></path><path d="M285.394486 813.294625h593.459111v45.650701h-593.459111z" fill="#6E6E96" opacity=".15" p-id="26284"></path><path d="M856.028246 706.015478h45.650701v187.167874h-45.650701z" fill="#6E6E96" p-id="26285"></path><path d="M308.219837 792.75181v-150.647313l-22.825351 22.825351h502.157709c37.757695 0 68.476051 30.718357 68.476051 68.476051v-4.56507 63.910981l22.825351-22.82535h-593.459111l22.825351 22.82535z m-45.650701-173.472663v196.298013h639.109811v-86.736331 4.56507c0-62.929491-51.197261-114.126752-114.126752-114.126752h-524.983059z" fill="#6E6E96" p-id="26286"></path><path d="M908.773066 960.093584c-0.611719 0-1.113877-0.00913-1.511038-0.01826H232.010557c-0.547808 0-1.095617-0.01826-1.643426-0.059346-32.786333-2.369271-94.79368-33.192625-94.79368-132.89832V420.310567H73.748707c-0.830843 0-1.661686-0.045651-2.487963-0.136952-3.117943-0.34238-30.864439-4.094868-45.28093-30.161418a22.82535 22.82535 0 1 1 39.948928-22.090374c2.492528 4.505724 7.760619 6.217625 9.874247 6.742609h82.600378a22.82535 22.82535 0 0 1 22.82535 22.82535v429.632441c0 35.593851 9.705339 62.011912 28.066051 76.410143 10.855737 8.513856 21.661258 10.554442 23.930097 10.896822h674.420629c0.34238 0 0.684761 0.00913 1.027141 0.022825 0.753237 0.01826 21.647562 0.273904 38.342023-16.069046 14.950605-14.63105 22.537751-38.606798 22.537751-71.260744V397.480652a22.82535 22.82535 0 0 1 22.825351-22.82535h81.12586c0.566069 0 1.132137 0.01826 1.698206 0.063911 0.99975 0.050216 2.236884 0.00913 3.455758-0.104997a22.829915 22.829915 0 0 1 43.911409-12.229823c7.116944 20.812154 0.045651 34.438889-4.802454 40.711295-13.549128 17.529869-37.995078 17.59378-44.96594 17.210314h-57.597489v406.811656c0 45.942865-12.480902 81.171511-37.100325 104.709012-27.504547 26.281108-60.112843 28.266914-69.329719 28.266914z" fill="#6E6E96" opacity=".15" p-id="26287"></path><path d="M260.487464 235.81326V55.803417h-45.650701v210.472556z" fill="#FFFFFF" opacity=".55" p-id="26288"></path><path d="M70.489247 409.002889c-0.821713-1.488213-3.337066-6.929776-1.159528-14.475837 2.437747-8.44538 10.015764-16.370341 21.916902-22.921217 0.862798-0.474767 1.698206-1.00888 2.492528-1.59321l116.336246-85.33029a22.811655 22.811655 0 0 0 9.326438-18.401797V55.803417a22.82535 22.82535 0 0 1-22.82535 22.82535h175.828239a22.82535 22.82535 0 0 1-22.82535-22.82535v109.287777a22.834481 22.834481 0 0 0 34.210635 19.785014l207.550911-119.440493a22.82535 22.82535 0 0 1-23.322943-0.328686l498.523913 305.955562 0.529548 0.310425c10.695959 6.17654 18.077678 18.826349 21.414744 28.609294 2.807518 8.217126-18.004636 17.059667-18.22376 17.141839a22.893826 22.893826 0 0 1 7.801705-1.378652h-81.12586a22.82535 22.82535 0 0 0-22.825351 22.825351v429.637005c0 32.653946-7.578016 56.629694-22.542316 71.260744-16.699026 16.342951-37.707479 16.073612-38.588537 16.059917-0.34238-0.013695-0.438247-0.013695-0.776062-0.013695h-675.630372c0.547808 0 1.095617 0.01826 1.643425 0.063911-5.071793-0.524983-52.42983-7.696708-52.42983-87.370877V438.570848a22.82535 22.82535 0 0 0-22.82535-22.825351H78.313777a23.861621 23.861621 0 0 1 2.958166 0.200863c-0.077606-0.01826-7.641927-1.264524-10.782696-6.943471z m7.82453 52.393309h84.650095a22.82535 22.82535 0 0 1-22.825351-22.82535v429.637005c0 99.710261 62.007347 130.533614 94.793681 132.898321 0.547808 0.041086 1.095617 0.059346 1.643425 0.059345h675.630372a25.701345 25.701345 0 0 1-1.027141-0.022825c4.094868 0.182603 40.944114 0.96323 71.475302-28.230393 24.623988-23.532936 37.100325-58.761582 37.100325-104.713578V438.570848c0 12.608724-10.212062 22.82535-22.825351 22.82535h81.125861c2.656871 0 5.295481-0.465637 7.801705-1.374086 30.581404-11.115946 57.971825-39.268733 45.828738-74.812368-3.743357-10.956168-15.31581-38.09551-41.802347-53.379365 0.178038 0.100432 0.35151 0.205428 0.529549 0.31499L591.893291 26.203502a22.834481 22.834481 0 0 0-23.322943-0.328685L361.019437 145.310746a22.82535 22.82535 0 0 1 34.210635 19.780448v-109.287777a22.82535 22.82535 0 0 0-22.82535-22.825351H196.576483a22.82535 22.82535 0 0 0-22.825351 22.825351v210.472556a22.82535 22.82535 0 0 1 9.326439-18.406363L66.741325 333.204465c0.794322-0.588894 1.625165-1.113877 2.492528-1.597774-28.746246 15.831663-39.661329 36.064054-43.760762 50.252291-4.829844 16.730982-2.980991 34.685402 5.071793 49.238846 14.416491 26.05742 42.158422 29.814473 45.2718 30.156853 0.830843 0.095866 1.661686 0.141517 2.497093 0.141517z" fill="#6E6E96" p-id="26289"></path></svg>
