<svg t="1755073891745" class="icon" viewBox="0 0 1024 1024" version="1.1" xmlns="http://www.w3.org/2000/svg" p-id="55118" width="200" height="200"><path d="M921.6 471.552A404.992 404.992 0 0 1 621.312 862.72c-33.536 8.96-104.704 94.72-104.704 94.72s-67.84-85.248-99.584-93.44A404.992 404.992 0 1 1 921.6 471.552z" fill="#FFFFFF" p-id="55119"></path><path d="M516.352 998.4l-19.712-25.6a355.072 355.072 0 0 0-87.04-83.968 430.592 430.592 0 1 1 217.088 0c-15.104 4.096-59.392 47.872-91.392 86.272z m0-905.984a379.392 379.392 0 0 0-93.44 747.008c28.16 7.168 68.352 49.152 93.952 78.592 25.6-29.44 68.608-71.936 97.536-79.616A379.392 379.392 0 0 0 516.608 92.16z" fill="#CCCCCC" p-id="55120"></path><path d="M440.832 267.008v-8.448a65.536 65.536 0 1 1 130.816 0v8.448a231.936 231.936 0 0 1 179.2 220.672v16.384a16.384 16.384 0 0 1-16.384 16.384H277.248a16.384 16.384 0 0 1-16.384-16.384v-16.384a231.936 231.936 0 0 1 179.2-220.672z m32.768-6.4a278.272 278.272 0 0 1 65.28 0v-2.048a32.768 32.768 0 0 0-65.28 0z m-212.736 292.608h490.752a16.128 16.128 0 0 1 14.08 7.936 15.616 15.616 0 0 1 0 16.384 15.872 15.872 0 0 1-14.08 8.192H260.864a15.872 15.872 0 0 1-14.08-8.192 15.616 15.616 0 0 1 0-16.384 16.128 16.128 0 0 1 14.08-7.936z m0 65.28h490.752a15.872 15.872 0 0 1 14.08 8.192 15.616 15.616 0 0 1 0 16.384 15.872 15.872 0 0 1-14.08 8.192H260.864a16.384 16.384 0 1 1 0-32.768z m102.4-250.624a242.432 242.432 0 0 0-35.584 71.424 16.64 16.64 0 0 0 11.008 20.48 16.384 16.384 0 0 0 20.224-10.752 217.088 217.088 0 0 1 30.72-62.208 16.128 16.128 0 1 0-25.6-18.944z m0 0" fill="#EFB454" p-id="55121"></path></svg>