<svg t="1755596748728" class="icon" viewBox="0 0 1024 1024" version="1.1" xmlns="http://www.w3.org/2000/svg" p-id="36981" width="200" height="200"><path d="M919.2 419.5c0-225.4-182.7-408.1-408.1-408.1S103 194.1 103 419.5c0 184.9 122.9 341 291.5 391.2l116.6 202 116.6-202c168.6-50.2 291.5-206.3 291.5-391.2z" fill="#7E9FFC" p-id="36982"></path><path d="M818 635.5l-57.6-41.6V190.7c0-54.4-38.6-93.1-93-93.1H357.2c-54.4 0-93 38.7-93 93.1v403.2L208 635.5c-7.8 7.8-7.8 15.5 0 23.3 0 3.9 3.9 3.9 7.8 3.9s7.8 0 11.7-3.9l98.8-64.9c1.8 0.9 39.6-0.9 372.2 0l92.5 64.9c3.9 3.9 7.8 3.9 11.7 3.9 3.9 0 7.8 0 11.7-3.9 7.5-7.7 7.5-15.5 3.6-23.3zM355.5 526.7c-23.3 0-38.9-19.4-38.9-38.9 0-23.3 19.4-38.9 38.9-38.9 23.3 0 38.9 19.4 38.9 38.9 3.9 23.4-15.6 38.9-38.9 38.9z m58.3-136c-54.4 0-97.2-7.8-97.2-54.5V235.1c0-46.6 40.4-76.2 87.9-75.8 5.3 2.5 200.7 0.4 232.8 1 24.3-0.6 68.1 32.1 68 74.8v74c0 42.7-42.7 81.6-97.2 81.6H413.8z m256.6 136c-23.3 0-38.9-19.4-38.9-38.9 0-23.3 19.4-38.9 38.9-38.9 23.3 0 38.9 19.4 38.9 38.9 0 23.4-15.5 38.9-38.9 38.9z m0 0" fill="#FFFFFF" p-id="36983"></path></svg>