<svg t="1755596847713" class="icon" viewBox="0 0 1024 1024" version="1.1" xmlns="http://www.w3.org/2000/svg" p-id="45380" width="200" height="200"><path d="M972.8 455.168a456.704 456.704 0 0 1-396.8 450.56C555.008 908.288 521.216 1024 512 1024s-47.616-115.712-70.656-119.296A457.216 457.216 0 0 1 51.2 455.168 460.8 460.8 0 0 1 512 0a460.8 460.8 0 0 1 460.8 455.168z" fill="#1CBCB4" p-id="45381"></path><path d="M862.72 460.8l-318.464 26.112a339.968 339.968 0 0 1 4.096-75.776 2368 2368 0 0 0 313.856 30.72v-56.32a633.856 633.856 0 0 1-293.888-105.472A222.208 222.208 0 0 0 409.6 231.424a153.6 153.6 0 0 0-96.768 38.912 624.64 624.64 0 0 0-101.888 119.296 153.6 153.6 0 0 0-19.456 162.816 256 256 0 0 0 34.816 51.2c2.56 3.584 13.824 18.944 18.432 18.944a928.768 928.768 0 0 0-83.968 55.296h66.56s43.008-29.696 86.528-53.76c28.16 0 60.928 0 88.064 2.56a1009.664 1009.664 0 0 0-88.064 64.512h65.536a738.304 738.304 0 0 1 225.792-102.4h-10.24a1651.712 1651.712 0 0 1 268.288-56.32V460.8z m-618.496 21.504c-23.04 0-39.424-11.264-39.424-26.112s18.432-25.6 41.472-25.6 41.984 11.264 41.984 25.6-20.48 26.112-44.032 26.112z m116.736-138.752l-82.944-4.608s37.376-51.2 51.2-56.32h51.2z m38.912-51.2h69.632v59.904l-82.944-3.072z m-5.12 164.864c0-14.336 18.944-25.6 41.984-25.6s41.472 11.264 41.472 25.6-18.432 26.112-41.472 26.112-41.984-12.288-41.984-27.136z" fill="#FFFFFF" p-id="45382"></path></svg>